<svg xmlns="http://www.w3.org/2000/svg" width="120" height="120" viewBox="0 0 108 108">
  <!-- Lion ears (behind mane) -->
  <path fill="#E65100" d="M22,38 L30,18 L46,36 Z"/>
  <path fill="#E65100" d="M62,36 L78,18 L86,38 Z"/>
  <path fill="#FF8A65" d="M26,36 L30,22 L41,34 Z"/>
  <path fill="#FF8A65" d="M67,34 L78,22 L82,36 Z"/>
  <!-- Mane -->
  <path fill="#E65100" d="M17,57 a37,37 0 1,0 74,0 a37,37 0 1,0 -74,0"/>
  <!-- Face -->
  <path fill="#FFB300" d="M28,57 a26,26 0 1,0 52,0 a26,26 0 1,0 -52,0"/>
  <!-- × sign -->
  <line x1="36" y1="40" x2="72" y2="74" stroke="#FFFFFF" stroke-width="13" stroke-linecap="round"/>
  <line x1="72" y1="40" x2="36" y2="74" stroke="#FFFFFF" stroke-width="13" stroke-linecap="round"/>
  <line x1="36" y1="40" x2="72" y2="74" stroke="#FFD54F" stroke-width="3" stroke-linecap="round"/>
  <line x1="72" y1="40" x2="36" y2="74" stroke="#FFD54F" stroke-width="3" stroke-linecap="round"/>
  <!-- Eyes -->
  <circle cx="43" cy="44" r="5" fill="#3E2723"/>
  <circle cx="65" cy="44" r="5" fill="#3E2723"/>
  <circle cx="41" cy="42" r="2" fill="#FFFFFF"/>
  <circle cx="63" cy="42" r="2" fill="#FFFFFF"/>
  <!-- Muzzle -->
  <ellipse cx="54" cy="65" rx="14" ry="9" fill="#FFD54F"/>
  <!-- Nose -->
  <ellipse cx="54" cy="63" rx="3" ry="2.5" fill="#E91E63"/>
  <!-- Smile -->
  <path d="M47,68 Q54,75 61,68" fill="none" stroke="#BF360C" stroke-width="2.5" stroke-linecap="round"/>
  <!-- Blushes -->
  <ellipse cx="36" cy="63" rx="7" ry="4" fill="#F48FB1" fill-opacity="0.55"/>
  <ellipse cx="72" cy="63" rx="7" ry="4" fill="#F48FB1" fill-opacity="0.55"/>
</svg>

